# xmcd CD database file
#
# Track frame offsets:
#	150
#	24550
#	41250
#	61887
#	79225
#	96257
#	111980
#	131100
#	143232
#	163275
#	174215
#	189060
#	194107
#
# Disc length: 2768 seconds
#
# Revision: 1
# Processed by: cddbd v1.4PL0 Copyright (c) Steve Scherf et al.
# Submitted via: CDex 1.51
#
DISCID=b30ace0d
DTITLE=Biohazard - Live and Alive
DYEAR=1993
DGENRE=Crossover
TTITLE0=Urban Discipline
TTITLE1=Shades Of Gray
TTITLE2=Punishment
TTITLE3=Businnes
TTITLE4=Wrong Side Of The Tracks
TTITLE5=Hold My Own
TTITLE6=Black And White And Red All
TTITLE7=Skinny Song
TTITLE8=Retribution
TTITLE9=Survival
TTITLE10=Victory
TTITLE11=Justified Violence
TTITLE12=Sacred For Life
EXTD=YEAR: 1993
EXTT0=
EXTT1=
EXTT2=
EXTT3=
EXTT4=
EXTT5=
EXTT6=
EXTT7=
EXTT8=
EXTT9=
EXTT10=
EXTT11=
EXTT12=
PLAYORDER=
